<?xml version="1.0" encoding="utf-8"?>
<!-- Generator: Adobe Illustrator 23.1.0, SVG Export Plug-In . SVG Version: 6.00 Build 0)  -->
<svg version="1.1" id="Layer_1" xmlns="http://www.w3.org/2000/svg" xmlns:xlink="http://www.w3.org/1999/xlink" x="0px" y="0px"
	 viewBox="0 0 612 792" style="enable-background:new 0 0 612 792;" xml:space="preserve">
<style type="text/css">
	.st0{fill:none;stroke:#878686;stroke-width:5;stroke-miterlimit:10;}
	.st1{fill:#878686;}
</style>
<circle class="st0" cx="312.34" cy="377.64" r="114.37"/>
<g>
	<g>
		<path class="st1" d="M248.24,403.37v-0.56c0-0.93,0.58-1.77,1.45-2.11l17.15-6.53c0.87-0.33,1.45-1.17,1.45-2.11v-27.55
			c0-0.96-0.59-1.8-1.49-2.12c-2.71-0.95-5.54-1.98-8.51-3.07c-2.98-1.1-5.84-2.15-8.59-3.16c-0.89-0.33-1.46-1.17-1.46-2.11l0,0
			c0-1.58,1.6-2.66,3.08-2.1c4.33,1.65,8.58,3.28,12.76,4.89c5.16,1.99,10.3,3.98,15.41,5.95c5.11,1.97,10.24,3.96,15.41,5.95
			c4.7,1.81,9.47,3.65,14.32,5.51c0.87,0.33,1.46,1.17,1.46,2.11v3.37c0,0.92-0.55,1.74-1.4,2.09l-57.92,23.62
			C249.87,406.06,248.24,404.97,248.24,403.37z M275,391.01l26.45-11.03c1.87-0.78,1.84-3.43-0.04-4.17l-26.45-10.47
			c-1.48-0.59-3.08,0.5-3.08,2.09v21.5C271.88,390.54,273.52,391.63,275,391.01z"/>
		<path class="st1" d="M347.72,406.48h-32.18c-1.26,0-2.28-1.02-2.28-2.28V346.4c0-1.26,1.02-2.28,2.28-2.28l0,0
			c1.26,0,2.28,1.02,2.28,2.28v53.25c0,1.26,1.02,2.28,2.28,2.28h27.62c1.26,0,2.28,1.02,2.28,2.28l0,0
			C350,405.46,348.98,406.48,347.72,406.48z"/>
		<path class="st1" d="M356.83,406.51L356.83,406.51c-1.26,0-2.28-1.02-2.28-2.28v-57.81c0-1.26,1.02-2.28,2.28-2.28l0,0
			c1.26,0,2.28,1.02,2.28,2.28v57.81C359.11,405.49,358.09,406.51,356.83,406.51z"/>
		<path class="st1" d="M414.01,372.28c0,21.11-10.5,34.2-31.5,34.2h-16.71c-1.18,0-2.14-0.96-2.14-2.14v-58.02
			c0-1.18,0.96-2.14,2.14-2.14h16.71c10.52,0,18.4,2.53,23.64,7.6C411.4,356.85,414.01,361.99,414.01,372.28z M409.17,374.82
			c0-4.1-0.41-7.76-1.22-10.99s-2.25-5.97-4.3-8.23s-4.79-3.98-8.23-5.15s-7.77-1.77-13.01-1.77h-12.04c-1.18,0-2.14,0.96-2.14,2.14
			v48.97c0,1.18,0.96,2.14,2.14,2.14h12.04c5.2,0,9.52-0.61,12.96-1.82s6.18-2.99,8.23-5.33c2.05-2.34,3.49-5.17,4.33-8.51
			C408.76,382.92,409.17,379.11,409.17,374.82z"/>
	</g>
	<path class="st1" d="M306.47,411.17h-38.41c-0.53,0-0.96-0.43-0.96-0.96v-2.74c0-0.53,0.43-0.96,0.96-0.96h38.41
		c0.53,0,0.96,0.43,0.96,0.96v2.74C307.42,410.74,307,411.17,306.47,411.17z"/>
	<g>
		<path class="st1" d="M210.67,350.59c0-1.74,1.66-3.01,3.33-2.52c3.67,1.07,10.09,3.31,19.25,6.72
			c10.37,3.86,17.19,6.22,20.44,7.08c1.15,0.3,1.93,1.34,1.93,2.52v0.09c0,1.23-0.86,2.29-2.06,2.55
			c-2.93,0.65-8.11,2.36-15.55,5.12c-10.52,3.94-17.3,6.17-20.34,6.7v0.45c3.22,0.46,10.13,2.44,20.72,5.94
			c7.39,2.43,12.46,3.96,15.22,4.58c1.18,0.27,2.01,1.33,2.01,2.54l0,0c0,1.24-0.85,2.3-2.06,2.55c-3.64,0.78-10.82,3.11-21.54,7.01
			c-8.51,3.1-14.49,5.21-17.93,6.33c-1.69,0.55-3.42-0.71-3.42-2.49v-0.97c0-1.19,0.8-2.23,1.95-2.53c2.69-0.7,8.01-2.31,15.94-4.83
			c10.98-3.49,17.7-5.23,20.16-5.23v-0.38c-2.6,0-9.28-1.77-20.04-5.32c-7.91-2.61-13.25-4.26-16.02-4.95
			c-1.17-0.29-1.99-1.33-1.99-2.54v-1.67c0-1.22,0.83-2.27,2.01-2.54c2.95-0.69,8.66-2.41,17.14-5.19
			c11.27-3.68,17.57-5.52,18.9-5.52v-0.38c-2.26,0-8.64-1.67-19.15-5.02c-8.08-2.58-13.67-4.16-16.78-4.76
			c-1.24-0.24-2.13-1.31-2.13-2.57V350.59z"/>
	</g>
</g>
</svg>
